<mxfile host="app.diagrams.net" agent="Mozilla/5.0 (Windows NT 10.0; Win64; x64) AppleWebKit/537.36 (KHTML, like Gecko) Chrome/136.0.0.0 Safari/537.36" version="27.0.9">
  <diagram name="Page-1" id="k7v9TnAWcTfyWpDLZg8k">
    <mxGraphModel dx="922" dy="742" grid="1" gridSize="10" guides="1" tooltips="1" connect="1" arrows="1" fold="1" page="1" pageScale="1" pageWidth="850" pageHeight="1100" math="0" shadow="0">
      <root>
        <mxCell id="0" />
        <mxCell id="1" parent="0" />
        <mxCell id="5R6FTIpGsxWRGbL4jiSv-17" value="" style="shape=table;startSize=0;container=1;collapsible=0;childLayout=tableLayout;" vertex="1" parent="1">
          <mxGeometry x="80" y="40" width="680" height="450" as="geometry" />
        </mxCell>
        <mxCell id="5R6FTIpGsxWRGbL4jiSv-18" value="" style="shape=tableRow;horizontal=0;startSize=0;swimlaneHead=0;swimlaneBody=0;strokeColor=inherit;top=0;left=0;bottom=0;right=0;collapsible=0;dropTarget=0;fillColor=none;points=[[0,0.5],[1,0.5]];portConstraint=eastwest;" vertex="1" parent="5R6FTIpGsxWRGbL4jiSv-17">
          <mxGeometry width="680" height="20" as="geometry" />
        </mxCell>
        <mxCell id="5R6FTIpGsxWRGbL4jiSv-19" value="Lecturer" style="shape=partialRectangle;html=1;whiteSpace=wrap;connectable=0;strokeColor=inherit;overflow=hidden;fillColor=none;top=0;left=0;bottom=0;right=0;pointerEvents=1;" vertex="1" parent="5R6FTIpGsxWRGbL4jiSv-18">
          <mxGeometry width="680" height="20" as="geometry">
            <mxRectangle width="680" height="20" as="alternateBounds" />
          </mxGeometry>
        </mxCell>
        <mxCell id="5R6FTIpGsxWRGbL4jiSv-20" value="" style="shape=tableRow;horizontal=0;startSize=0;swimlaneHead=0;swimlaneBody=0;strokeColor=inherit;top=0;left=0;bottom=0;right=0;collapsible=0;dropTarget=0;fillColor=none;points=[[0,0.5],[1,0.5]];portConstraint=eastwest;" vertex="1" parent="5R6FTIpGsxWRGbL4jiSv-17">
          <mxGeometry y="20" width="680" height="118" as="geometry" />
        </mxCell>
        <mxCell id="5R6FTIpGsxWRGbL4jiSv-21" value="-name : String&lt;div&gt;-id : String&lt;/div&gt;&lt;div&gt;-degreeLevel : Enum&lt;/div&gt;&lt;div&gt;-degreeTitle : String&lt;/div&gt;&lt;div&gt;-salary : double&lt;/div&gt;&lt;div&gt;-department : Department&lt;/div&gt;&lt;div&gt;-committees : Committee[]&lt;/div&gt;&lt;div&gt;-committeeCount : int&lt;/div&gt;" style="shape=partialRectangle;html=1;whiteSpace=wrap;connectable=0;strokeColor=inherit;overflow=hidden;fillColor=none;top=0;left=0;bottom=0;right=0;pointerEvents=1;align=left;" vertex="1" parent="5R6FTIpGsxWRGbL4jiSv-20">
          <mxGeometry width="680" height="118" as="geometry">
            <mxRectangle width="680" height="118" as="alternateBounds" />
          </mxGeometry>
        </mxCell>
        <mxCell id="5R6FTIpGsxWRGbL4jiSv-22" value="" style="shape=tableRow;horizontal=0;startSize=0;swimlaneHead=0;swimlaneBody=0;strokeColor=inherit;top=0;left=0;bottom=0;right=0;collapsible=0;dropTarget=0;fillColor=none;points=[[0,0.5],[1,0.5]];portConstraint=eastwest;" vertex="1" parent="5R6FTIpGsxWRGbL4jiSv-17">
          <mxGeometry y="138" width="680" height="312" as="geometry" />
        </mxCell>
        <mxCell id="5R6FTIpGsxWRGbL4jiSv-23" value="+Lecturer(&lt;span style=&quot;background-color: transparent;&quot;&gt;name :&amp;nbsp;&lt;/span&gt;String&lt;span style=&quot;background-color: transparent;&quot;&gt;, id :&amp;nbsp;&lt;/span&gt;String&lt;span style=&quot;background-color: transparent;&quot;&gt;, degreeLevel :&amp;nbsp;&lt;/span&gt;String&lt;span style=&quot;background-color: transparent;&quot;&gt;, degreeTitle :&amp;nbsp;&lt;/span&gt;String&lt;span style=&quot;background-color: transparent;&quot;&gt;, salary :&amp;nbsp;&lt;/span&gt;double&lt;span style=&quot;background-color: transparent;&quot;&gt;, department :&amp;nbsp;&lt;/span&gt;Department)&lt;div&gt;+toString()&lt;/div&gt;&lt;div&gt;+&lt;/div&gt;&lt;div&gt;+setId(id : String)&lt;/div&gt;&lt;div&gt;+setName(name : String)&lt;/div&gt;&lt;div&gt;&lt;span style=&quot;background-color: transparent; color: light-dark(rgb(0, 0, 0), rgb(255, 255, 255));&quot;&gt;+setDegreeLevel(degreeLevel :&amp;nbsp;&lt;/span&gt;&lt;span style=&quot;background-color: transparent; color: light-dark(rgb(0, 0, 0), rgb(255, 255, 255));&quot;&gt;String&lt;/span&gt;&lt;span style=&quot;background-color: transparent; color: light-dark(rgb(0, 0, 0), rgb(255, 255, 255));&quot;&gt;);&lt;/span&gt;&lt;/div&gt;&lt;div&gt;+setDegreeTitle(degreeTitle :&amp;nbsp;&lt;span style=&quot;background-color: transparent; color: light-dark(rgb(0, 0, 0), rgb(255, 255, 255));&quot;&gt;String&lt;/span&gt;&lt;span style=&quot;background-color: transparent; color: light-dark(rgb(0, 0, 0), rgb(255, 255, 255));&quot;&gt;);&lt;/span&gt;&lt;/div&gt;&lt;div&gt;+setSalary(salary : double);&lt;/div&gt;&lt;div&gt;+setDepartment(department : Department);&lt;/div&gt;&lt;div&gt;+setCommittees(committees : Committee[]);&lt;/div&gt;&lt;div&gt;+setCommitteesCount(committeesCount : int);&lt;/div&gt;&lt;div&gt;&lt;div&gt;+getName()&lt;/div&gt;&lt;div&gt;&lt;span style=&quot;background-color: transparent; color: light-dark(rgb(0, 0, 0), rgb(255, 255, 255));&quot;&gt;+getId()&lt;/span&gt;&lt;/div&gt;&lt;div&gt;&lt;span style=&quot;background-color: transparent; color: light-dark(rgb(0, 0, 0), rgb(255, 255, 255));&quot;&gt;+getDegreeLevel()&lt;/span&gt;&lt;/div&gt;&lt;div&gt;&lt;span style=&quot;background-color: transparent; color: light-dark(rgb(0, 0, 0), rgb(255, 255, 255));&quot;&gt;+getDegreeTitle()&lt;/span&gt;&lt;/div&gt;&lt;div&gt;&lt;span style=&quot;background-color: transparent; color: light-dark(rgb(0, 0, 0), rgb(255, 255, 255));&quot;&gt;+getSalary()&lt;/span&gt;&lt;/div&gt;&lt;div&gt;+&lt;span style=&quot;background-color: transparent; color: light-dark(rgb(0, 0, 0), rgb(255, 255, 255));&quot;&gt;getDepartment()&lt;/span&gt;&lt;/div&gt;&lt;div&gt;&lt;span style=&quot;background-color: transparent; color: light-dark(rgb(0, 0, 0), rgb(255, 255, 255));&quot;&gt;+getCommittees()&lt;/span&gt;&lt;/div&gt;&lt;div&gt;+getCommitteesCount()&lt;/div&gt;&lt;div&gt;+committeesNamesToString()&lt;/div&gt;&lt;div&gt;&lt;span style=&quot;background-color: transparent; color: light-dark(rgb(0, 0, 0), rgb(255, 255, 255));&quot;&gt;+removeFromCommittee(Committee committee)&lt;/span&gt;&lt;/div&gt;&lt;/div&gt;" style="shape=partialRectangle;html=1;whiteSpace=wrap;connectable=0;strokeColor=inherit;overflow=hidden;fillColor=none;top=0;left=0;bottom=0;right=0;pointerEvents=1;align=left;" vertex="1" parent="5R6FTIpGsxWRGbL4jiSv-22">
          <mxGeometry width="680" height="312" as="geometry">
            <mxRectangle width="680" height="312" as="alternateBounds" />
          </mxGeometry>
        </mxCell>
      </root>
    </mxGraphModel>
  </diagram>
</mxfile>
